<mxfile host="app.diagrams.net" modified="2021-02-23T22:05:32.390Z" agent="5.0 (Windows NT 6.3; Win64; x64) AppleWebKit/537.36 (KHTML, like Gecko) Chrome/88.0.4324.190 Safari/537.36" etag="sGJQAMqRtB87Ovs4sJMj" version="14.2.9" type="github">
  <diagram id="_bLEPY9MUKeixrJfoKjJ" name="Page-1">
    <mxGraphModel dx="868" dy="450" grid="1" gridSize="10" guides="1" tooltips="1" connect="1" arrows="1" fold="1" page="1" pageScale="1" pageWidth="850" pageHeight="1100" math="0" shadow="0">
      <root>
        <mxCell id="0" />
        <mxCell id="1" parent="0" />
        <mxCell id="Y1IrAhcieXJ3fh3YclmG-1" value="Car" style="swimlane;fontStyle=1;align=center;verticalAlign=top;childLayout=stackLayout;horizontal=1;startSize=26;horizontalStack=0;resizeParent=1;resizeParentMax=0;resizeLast=0;collapsible=1;marginBottom=0;" vertex="1" parent="1">
          <mxGeometry x="80" y="40" width="160" height="170" as="geometry" />
        </mxCell>
        <mxCell id="Y1IrAhcieXJ3fh3YclmG-2" value="gasInTank: double&#xa;milesPerGallon: double&#xa;currentGear: String&#xa;areLightsOn: boolean" style="text;strokeColor=none;fillColor=none;align=left;verticalAlign=top;spacingLeft=4;spacingRight=4;overflow=hidden;rotatable=0;points=[[0,0.5],[1,0.5]];portConstraint=eastwest;" vertex="1" parent="Y1IrAhcieXJ3fh3YclmG-1">
          <mxGeometry y="26" width="160" height="64" as="geometry" />
        </mxCell>
        <mxCell id="Y1IrAhcieXJ3fh3YclmG-3" value="" style="line;strokeWidth=1;fillColor=none;align=left;verticalAlign=middle;spacingTop=-1;spacingLeft=3;spacingRight=3;rotatable=0;labelPosition=right;points=[];portConstraint=eastwest;" vertex="1" parent="Y1IrAhcieXJ3fh3YclmG-1">
          <mxGeometry y="90" width="160" height="8" as="geometry" />
        </mxCell>
        <mxCell id="Y1IrAhcieXJ3fh3YclmG-4" value="changeGear(String): String&#xa;accelerate(): double&#xa;decelerate(): double&#xa;toggleLights(): void" style="text;strokeColor=none;fillColor=none;align=left;verticalAlign=top;spacingLeft=4;spacingRight=4;overflow=hidden;rotatable=0;points=[[0,0.5],[1,0.5]];portConstraint=eastwest;" vertex="1" parent="Y1IrAhcieXJ3fh3YclmG-1">
          <mxGeometry y="98" width="160" height="72" as="geometry" />
        </mxCell>
      </root>
    </mxGraphModel>
  </diagram>
</mxfile>
